M48
INCH
T01C0.0400
T02C0.0300
T03C0.0150
T04C0.0350
T05C0.0910
%
T01
X+011850Y+009450
X+011850Y+008450
X+011850Y+007450
X+011850Y+006450
X+011850Y+005450
X+011850Y+004450
X+011850Y+003450
X+011850Y+002450
X+011850Y+001450
X+011850Y+000450
X+011850Y-000550
X+011850Y-001550
X+011850Y-002550
X+011850Y-003550
X+011850Y-004550
X+011850Y-005550
X+011850Y-006550
X+011850Y-007550
X+012850Y+009450
X+012850Y+008450
X+012850Y+007450
X+012850Y+006450
X+012850Y+005450
X+012850Y+004450
X+012850Y+003450
X+012850Y+002450
X+012850Y+001450
X+012850Y+000450
X+012850Y-000550
X+012850Y-001550
X+012850Y-002550
X+012850Y-003550
X+012850Y-004550
X+012850Y-005550
X+012850Y-006550
X+012850Y-007550
X+008850Y+009450
X+007850Y+009450
X+006850Y+009450
X+005850Y+009450
X+004850Y+009450
X+003850Y+009450
X+002850Y+009450
X+001850Y+009450
X-005150Y-009550
X-004150Y-009550
X-003150Y-009550
X-002150Y-009550
X-001150Y-009550
X-000150Y-009550
X+000850Y-009550
X+001850Y-009550
X+003850Y-009550
X+004850Y-009550
X+005850Y-009550
X+006850Y-009550
X+007850Y-009550
X+008850Y-009550
X+009850Y-009550
X+010850Y-009550
X-008650Y+009450
X-009650Y+009450
X-010650Y+009450
X-011650Y+009450
X-012650Y+009450
X-013650Y+009450
X-014650Y+009450
X-015650Y+009450
X-016650Y+009450
X-017650Y+009450
X-000150Y+009450
X-001150Y+009450
X-002150Y+009450
X-003150Y+009450
X-004150Y+009450
X-005150Y+009450
X-006150Y+009450
X-007150Y+009450
X-014150Y-009550
X-013150Y-009550
X-012150Y-009550
X-011150Y-009550
X-010150Y-009550
X-009150Y-009550
X-008150Y-009550
X-007150Y-009550
X-021350Y+002800
X-021350Y+003800
X-021350Y+004800
X-020350Y+014200
X-020350Y+013200
X-020350Y+012200
X-020350Y+011200
X-020350Y+010200
X-020350Y+009200
X-020350Y+008200
X-020350Y+007200
X-021350Y+014200
X-021350Y+013200
X-021350Y+012200
X-021350Y+011200
X-021350Y+010200
X-021350Y+009200
X-021350Y+008200
X-021350Y+007200
X+012650Y+013720
X+013650Y+013720
X+014650Y+013720
X+015650Y+013720
X+016650Y+013720
X+017650Y+013720
X+017650Y+012320
X+016650Y+012320
X+015650Y+012320
X+014650Y+012320
X+013650Y+012320
X+012650Y+012320
X+017600Y+001950
X+017600Y+000950
X+017600Y-000050
X+017600Y-001050
X+017600Y-002050
X+017600Y-003050
X+015650Y-003050
X+015650Y-002050
X+015650Y-001050
X+015650Y-000050
X+015650Y+000950
X+015650Y+001950
X+017360Y+009500
X+017360Y+008500
X+017360Y+007500
X+017360Y+006500
X+017360Y+005500
X+017360Y+004500
X+015760Y+004500
X+015760Y+005500
X+015760Y+006500
X+015760Y+007500
X+015760Y+008500
X+015760Y+009500
X-017580Y+014190
X-017580Y+013190
X-017580Y+012190
X-017580Y+011190
X-018580Y+014190
X-018580Y+013190
X-018580Y+012190
X-018580Y+011190
T02
X-016432Y-001917
X-015432Y-001917
X-014432Y-001917
X-013432Y-001917
X-012432Y-001917
X-011432Y-001917
X-010432Y-001917
X-010432Y+001082
X-011432Y+001082
X-012432Y+001082
X-013432Y+001082
X-014432Y+001082
X-015432Y+001082
X-016432Y+001082
X-006950Y-001850
X-005950Y-001850
X-004950Y-001850
X-003950Y-001850
X-002950Y-001850
X-001950Y-001850
X-000950Y-001850
X-000950Y+001150
X-001950Y+001150
X-002950Y+001150
X-003950Y+001150
X-004950Y+001150
X-005950Y+001150
X-006950Y+001150
X-017240Y+002040
X-017240Y+003040
X+000150Y-003000
X+000150Y-007000
X-007666Y-005669
X-011666Y-005669
X-014975Y+003000
X-010975Y+003000
X-002525Y-004425
X-006525Y-004425
X-014874Y+006450
X-010874Y+006450
X-006600Y-003500
X-002600Y-003500
X+002200Y+003050
X-001799Y+003050
X-001850Y+002000
X-005850Y+002000
X-018650Y+003810
X-018650Y-000190
X-017070Y+005590
X-013070Y+005590
X+000052Y+004247
X-003947Y+004247
X-007716Y-003817
X-011716Y-003817
X-010450Y+002050
X-014450Y+002050
X-011682Y-004750
X-007682Y-004750
X-018750Y+007600
X-018750Y+005600
X-001400Y-005400
X-001400Y-004400
X-021280Y+000600
X-021280Y-001400
X-001425Y-006400
X-013650Y-003550
X-013650Y-004550
X+009600Y+002550
X+009600Y+006550
X-011550Y+007900
X-007550Y+007900
X+005900Y-002650
X+005900Y-006650
X+006850Y+005650
X+006850Y+004650
X+002905Y-001800
X+003905Y-001800
X+004905Y-001800
X+005905Y-001800
X+006905Y-001800
X+007905Y-001800
X+008905Y-001800
X+008905Y+001200
X+007905Y+001200
X+006905Y+001200
X+005905Y+001200
X+004905Y+001200
X+003905Y+001200
X+002905Y+001200
X+004900Y-006724
X+004900Y-002724
X+006800Y-006650
X+006800Y-002650
X+007049Y+002150
X+003049Y+002150
X+008700Y+006550
X+008700Y+002550
X-010650Y+011900
X-009650Y+011900
X-008650Y+011900
X+008850Y+011800
X+007850Y+011800
X+015410Y-008610
X+015410Y-005590
X+015410Y-007590
X+015410Y-006590
X+004850Y+011890
X+004850Y+012910
X-021240Y-005410
X-017050Y+004640
X-013050Y+004640
X-021280Y-003420
X-007150Y+010700
X-007150Y+014700
X-006100Y+010700
X-006100Y+014700
X-009450Y+014300
X-010450Y+014300
X-012000Y+014300
X-013000Y+014300
X-007150Y-008300
X-009150Y-008300
X-008150Y-008300
X-005150Y+010700
X-005150Y+014700
X-003900Y+014700
X-003900Y+013700
X-008950Y+005800
X-008950Y+006800
X-007050Y+005850
X-007050Y+001850
X-009350Y+002950
X-009350Y-001050
X+000050Y+005150
X-003950Y+005150
X+008610Y-002850
X+008610Y-006850
X+003299Y-002780
X+003299Y-006780
X+006850Y+006650
X-018900Y-005600
X-020150Y+003750
X-018900Y-004600
X-020150Y+004750
X-005300Y+007900
X-005300Y+006900
X+006850Y+011800
X+006840Y+013540
X+010840Y+013540
X+003834Y+010480
X+003834Y+014480
X+008870Y+014480
X+004870Y+014480
X-002950Y+011270
X-002150Y+011270
X-001350Y+011270
X-001330Y+012920
X-002960Y+012920
X+001990Y+011420
X+001990Y+012220
X+001990Y+013020
X+000220Y+013020
X+000220Y+011420
X-013650Y-005560
T03
X-015810Y-000450
X-005630Y-000280
X+005900Y-000300
X-004910Y-000280
T04
X-017250Y-008200
X-017250Y-009180
X-017250Y-009970
X-017250Y-010950
T05
X-018314Y-006997
X-018314Y-012167
M30
